<svg width="167" height="26" viewBox="0 0 167 26" fill="none" xmlns="http://www.w3.org/2000/svg">
<path d="M26.488 0.5717V24.8668H21.615V9.06455L15.1061 24.8668H11.4166L4.87295 9.06455V24.8668H0V0.5717H5.53428L13.2614 18.6364L20.9885 0.5717H26.488Z" fill="#FAFFFC"/>
<path d="M53.1296 0.5717L44.219 24.8668H38.3019L29.3913 0.5717H34.6124L41.2952 19.8895L47.9433 0.5717H53.1296Z" fill="#FAFFFC"/>
<path d="M64.4396 25.1105C62.7457 25.1105 61.2142 24.8204 59.8451 24.2403C58.4992 23.6602 57.4318 22.8248 56.6429 21.7342C55.8539 20.6436 55.4478 19.3558 55.4246 17.8707H60.6456C60.7153 18.8685 61.0633 19.6574 61.6898 20.2375C62.3396 20.8176 63.2213 21.1077 64.3352 21.1077C65.4722 21.1077 66.3656 20.8408 67.0153 20.3071C67.665 19.7502 67.9899 19.0309 67.9899 18.1491C67.9899 17.4298 67.7694 16.8381 67.3285 16.374C66.8877 15.9099 66.3307 15.5502 65.6578 15.295C65.0081 15.0165 64.1031 14.7149 62.9429 14.39C61.365 13.9259 60.0771 13.4734 59.0793 13.0325C58.1047 12.5684 57.2578 11.8839 56.5384 10.9789C55.8423 10.0507 55.4942 8.82091 55.4942 7.28941C55.4942 5.85073 55.8539 4.59768 56.5732 3.53028C57.2926 2.46287 58.302 1.65071 59.6014 1.0938C60.9009 0.513689 62.386 0.223633 64.0567 0.223633C66.5628 0.223633 68.5932 0.838552 70.1479 2.06839C71.7258 3.27503 72.596 4.96896 72.7584 7.15018H67.3982C67.3517 6.31482 66.9921 5.63029 66.3191 5.09658C65.6694 4.53967 64.7992 4.26122 63.7086 4.26122C62.7573 4.26122 61.9915 4.50487 61.4114 4.99216C60.8545 5.47946 60.576 6.18719 60.576 7.11537C60.576 7.7651 60.7849 8.31041 61.2025 8.75129C61.6434 9.16897 62.1771 9.51704 62.8037 9.7955C63.4534 10.0507 64.3584 10.3524 65.5186 10.7005C67.0965 11.1646 68.3843 11.6287 69.3821 12.0927C70.3799 12.5568 71.2385 13.253 71.9578 14.1812C72.6772 15.1093 73.0369 16.3276 73.0369 17.8359C73.0369 19.1353 72.7004 20.3419 72.0275 21.4558C71.3545 22.5696 70.3683 23.463 69.0689 24.1359C67.7694 24.7856 66.2263 25.1105 64.4396 25.1105Z" fill="#FAFFFC"/>
<path d="M93.7947 0.5717V4.50487H87.3207V24.8668H82.4477V4.50487H75.9737V0.5717H93.7947Z" fill="#FAFFFC"/>
<path d="M100.497 17.7604C100.497 16.3662 100.809 15.1209 101.431 14.0245C102.067 12.9146 102.927 12.055 104.01 11.4459C105.106 10.8233 106.331 10.5119 107.685 10.5119C109.269 10.5119 110.656 10.918 111.847 11.7302C113.038 12.5423 113.871 13.6658 114.345 15.1006H111.076C110.751 14.4238 110.291 13.9162 109.695 13.5778C109.113 13.2394 108.436 13.0702 107.665 13.0702C106.839 13.0702 106.101 13.2665 105.451 13.659C104.815 14.0381 104.314 14.5795 103.949 15.2834C103.597 15.9872 103.421 16.8129 103.421 17.7604C103.421 18.6944 103.597 19.5201 103.949 20.2375C104.314 20.9414 104.815 21.4896 105.451 21.8822C106.101 22.2612 106.839 22.4507 107.665 22.4507C108.436 22.4507 109.113 22.2815 109.695 21.9431C110.291 21.5911 110.751 21.0768 111.076 20.4H114.345C113.871 21.8483 113.038 22.9786 111.847 23.7907C110.67 24.5893 109.282 24.9887 107.685 24.9887C106.331 24.9887 105.106 24.6841 104.01 24.075C102.927 23.4523 102.067 22.5928 101.431 21.4964C100.809 20.4 100.497 19.1547 100.497 17.7604Z" fill="#FAFFFC"/>
<path d="M121.767 25.0496C120.684 25.0496 119.71 24.8127 118.843 24.3389C117.977 23.8516 117.294 23.1681 116.793 22.2882C116.305 21.4084 116.062 20.3932 116.062 19.2426C116.062 18.0921 116.312 17.0769 116.813 16.197C117.327 15.3172 118.025 14.6404 118.904 14.1666C119.784 13.6794 120.766 13.4357 121.848 13.4357C122.931 13.4357 123.913 13.6794 124.793 14.1666C125.672 14.6404 126.363 15.3172 126.864 16.197C127.378 17.0769 127.635 18.0921 127.635 19.2426C127.635 20.3932 127.371 21.4084 126.843 22.2882C126.329 23.1681 125.625 23.8516 124.732 24.3389C123.852 24.8127 122.864 25.0496 121.767 25.0496ZM121.767 22.5725C122.282 22.5725 122.762 22.4507 123.209 22.207C123.669 21.9498 124.034 21.5708 124.305 21.07C124.576 20.5692 124.711 19.96 124.711 19.2426C124.711 18.1733 124.427 17.3544 123.859 16.7859C123.304 16.2038 122.62 15.9128 121.808 15.9128C120.996 15.9128 120.312 16.2038 119.757 16.7859C119.216 17.3544 118.945 18.1733 118.945 19.2426C118.945 20.312 119.209 21.1377 119.737 21.7197C120.278 22.2882 120.955 22.5725 121.767 22.5725Z" fill="#FAFFFC"/>
<path d="M134.877 15.9534H132.908V24.8668H130.025V15.9534H128.746V13.6184H130.025V13.0499C130.025 11.6693 130.417 10.6541 131.202 10.0043C131.987 9.35461 133.172 9.05005 134.756 9.09066V11.4865C134.065 11.473 133.585 11.588 133.314 11.8317C133.043 12.0753 132.908 12.5153 132.908 13.1514V13.6184H134.877V15.9534Z" fill="#FAFFFC"/>
<path d="M141.877 15.9534H139.907V24.8668H137.024V15.9534H135.745V13.6184H137.024V13.0499C137.024 11.6693 137.417 10.6541 138.202 10.0043C138.987 9.35461 140.171 9.05005 141.755 9.09066V11.4865C141.065 11.473 140.584 11.588 140.313 11.8317C140.043 12.0753 139.907 12.5153 139.907 13.1514V13.6184H141.877V15.9534Z" fill="#FAFFFC"/>
<path d="M154.175 18.999C154.175 19.4051 154.148 19.7705 154.094 20.0954H145.871C145.939 20.9076 146.223 21.5438 146.724 22.004C147.225 22.4642 147.84 22.6943 148.571 22.6943C149.627 22.6943 150.378 22.2409 150.825 21.3339H153.891C153.566 22.4168 152.944 23.3102 152.023 24.0141C151.103 24.7044 149.972 25.0496 148.632 25.0496C147.549 25.0496 146.575 24.8127 145.709 24.3389C144.856 23.8516 144.186 23.1681 143.698 22.2882C143.225 21.4084 142.988 20.3932 142.988 19.2426C142.988 18.0785 143.225 17.0566 143.698 16.1767C144.172 15.2969 144.836 14.6201 145.688 14.1463C146.541 13.6726 147.522 13.4357 148.632 13.4357C149.702 13.4357 150.656 13.6658 151.495 14.126C152.348 14.5863 153.004 15.2428 153.465 16.0955C153.938 16.9348 154.175 17.9026 154.175 18.999ZM151.231 18.1868C151.218 17.4559 150.954 16.8738 150.439 16.4407C149.925 15.994 149.296 15.7707 148.551 15.7707C147.847 15.7707 147.252 15.9872 146.764 16.4204C146.291 16.84 146 17.4288 145.891 18.1868H151.231Z" fill="#FAFFFC"/>
<path d="M166.707 18.999C166.707 19.4051 166.68 19.7705 166.625 20.0954H158.402C158.47 20.9076 158.754 21.5438 159.255 22.004C159.756 22.4642 160.372 22.6943 161.103 22.6943C162.159 22.6943 162.91 22.2409 163.357 21.3339H166.422C166.098 22.4168 165.475 23.3102 164.554 24.0141C163.634 24.7044 162.504 25.0496 161.164 25.0496C160.081 25.0496 159.106 24.8127 158.24 24.3389C157.387 23.8516 156.717 23.1681 156.23 22.2882C155.756 21.4084 155.519 20.3932 155.519 19.2426C155.519 18.0785 155.756 17.0566 156.23 16.1767C156.704 15.2969 157.367 14.6201 158.22 14.1463C159.072 13.6726 160.054 13.4357 161.164 13.4357C162.233 13.4357 163.187 13.6658 164.027 14.126C164.879 14.5863 165.536 15.2428 165.996 16.0955C166.47 16.9348 166.707 17.9026 166.707 18.999ZM163.763 18.1868C163.749 17.4559 163.485 16.8738 162.971 16.4407C162.456 15.994 161.827 15.7707 161.082 15.7707C160.379 15.7707 159.783 15.9872 159.296 16.4204C158.822 16.84 158.531 17.4288 158.423 18.1868H163.763Z" fill="#FAFFFC"/>
</svg>
